<?xml version="1.0" encoding="UTF-8"?>
<svg width="32" height="32" viewBox="0 0 32 32" fill="none" xmlns="http://www.w3.org/2000/svg">
  <!-- Fondo -->
  <rect width="32" height="32" rx="6" fill="#3ABBE5"/>
  
  <!-- Icono de auto estilizado -->
  <path d="M8 20C8 20 7 20 7 19V16C7 15 8 14 9 14H10L12 10C12.5 9 13.5 8 15 8H17C18.5 8 19.5 9 20 10L22 14H23C24 14 25 15 25 16V19C25 20 24 20 24 20" stroke="white" stroke-width="2" stroke-linecap="round" stroke-linejoin="round"/>
  
  <!-- Ruedas -->
  <circle cx="10" cy="20" r="3" fill="white"/>
  <circle cx="22" cy="20" r="3" fill="white"/>
  
  <!-- Centro de ruedas -->
  <circle cx="10" cy="20" r="1.5" fill="#3ABBE5"/>
  <circle cx="22" cy="20" r="1.5" fill="#3ABBE5"/>
</svg>